<?xml version="1.0" encoding="UTF-8" standalone="no"?>
<svg
   xmlns:dc="http://purl.org/dc/elements/1.1/"
   xmlns:cc="http://creativecommons.org/ns#"
   xmlns:rdf="http://www.w3.org/1999/02/22-rdf-syntax-ns#"
   xmlns:svg="http://www.w3.org/2000/svg"
   xmlns="http://www.w3.org/2000/svg"
   xmlns:sodipodi="http://sodipodi.sourceforge.net/DTD/sodipodi-0.dtd"
   xmlns:inkscape="http://www.inkscape.org/namespaces/inkscape"
   aria-label="Comment"
   class="_8-yf5 "
   fill="#262626"
   height="24"
   viewBox="0 0 48 48"
   width="24"
   version="1.1"
   id="svg22"
   sodipodi:docname="comment button.svg"
   inkscape:version="0.92.4 (5da689c313, 2019-01-14)">
  <metadata
     id="metadata28">
    <rdf:RDF>
      <cc:Work
         rdf:about="">
        <dc:format>image/svg+xml</dc:format>
        <dc:type
           rdf:resource="http://purl.org/dc/dcmitype/StillImage" />
        <dc:title></dc:title>
      </cc:Work>
    </rdf:RDF>
  </metadata>
  <defs
     id="defs26" />
  <sodipodi:namedview
     pagecolor="#ffffff"
     bordercolor="#666666"
     borderopacity="1"
     objecttolerance="10"
     gridtolerance="10"
     guidetolerance="10"
     inkscape:pageopacity="0"
     inkscape:pageshadow="2"
     inkscape:window-width="1920"
     inkscape:window-height="1001"
     id="namedview24"
     showgrid="false"
     inkscape:zoom="23.805928"
     inkscape:cx="12.634482"
     inkscape:cy="10.463496"
     inkscape:window-x="-9"
     inkscape:window-y="-9"
     inkscape:window-maximized="1"
     inkscape:current-layer="svg22" />
  <path
     d="M47.5 46.1l-2.8-11c1.8-3.3 2.8-7.1 2.8-11.1C47.5 11 37 .5 24 .5S.5 11 .5 24 11 47.5 24 47.5c4 0 7.8-1 11.1-2.8l11 2.8c.8.2 1.6-.6 1.4-1.4zm-3-22.1c0 4-1 7-2.6 10-.2.4-.3.9-.2 1.4l2.1 8.4-8.3-2.1c-.5-.1-1-.1-1.4.2-1.8 1-5.2 2.6-10 2.6-11.4 0-20.6-9.2-20.6-20.5S12.7 3.5 24 3.5 44.5 12.7 44.5 24z"
     id="path20"
     clip-rule="evenodd"
     fill-rule="evenodd" />
</svg>
